<?xml version="1.0" encoding="utf-8"?>
<!-- Generator: Adobe Illustrator 19.2.1, SVG Export Plug-In . SVG Version: 6.00 Build 0)  -->
<!DOCTYPE svg PUBLIC "-//W3C//DTD SVG 1.1//EN" "http://www.w3.org/Graphics/SVG/1.1/DTD/svg11.dtd">
<svg xmlns="http://www.w3.org/2000/svg" xmlns:xlink="http://www.w3.org/1999/xlink" version="1.1" id="Layer_1" x="0px" y="0px" viewBox="0 0 89.2 138.5" enable-background="new 0 0 89.2 138.5" xml:space="preserve">
<!-- overlay 7 -->
<g>
	<g>
		<path fill="#BCBEC0" d="M45.5,135.4l19.7-22.8c2.2-2.9,3.5-6.5,3.5-10.2v-1.4c0-4.1-1.5-8.1-4.3-11.1l-4.4-4.9L53,74.8    c-2.3-3.3-3.6-7.2-3.6-11.3c0-4.1-1.5-8-4.2-11.1L41,47.8c-3.2-3.6-5-8.2-5-13.1V24.1c0-3.5-1.1-6.8-3.1-9.7l-5.5-7.7l2.4-1.7    l5.5,7.7c2.4,3.4,3.7,7.3,3.7,11.4v10.6c0,4.1,1.5,8,4.2,11.1l4.2,4.7c3.2,3.6,5,8.2,5,13.1c0,3.5,1.1,6.8,3,9.6l7,9.9l4.3,4.7    c3.3,3.6,5,8.3,5,13.2v1.4c0,4.4-1.5,8.7-4.2,12.1l-19.2,22.2L45.5,135.4z"/>
		<path fill="#BCBEC0" d="M47.3,136.5l-0.8-0.7L66,113.2c2.4-3.1,3.7-6.9,3.7-10.9v-1.4c0-4.4-1.6-8.6-4.5-11.8l-4.3-4.8l-7.1-10    c-2.2-3.2-3.4-6.9-3.4-10.7c0-4.3-1.6-8.5-4.5-11.7l-4.2-4.7c-3-3.4-4.7-7.8-4.7-12.4V24.1c0-3.7-1.1-7.3-3.3-10.3l-5-6.9l0.8-0.6    l5,6.9c2.3,3.2,3.5,6.9,3.5,10.8v10.6c0,4.3,1.6,8.5,4.5,11.7l4.2,4.7c3,3.4,4.7,7.8,4.7,12.4c0,3.7,1.1,7.2,3.2,10.2l7,10    l4.3,4.8c3.1,3.4,4.8,7.9,4.8,12.5v1.4c0,4.1-1.4,8.2-4,11.5L47.3,136.5z"/>
	</g>
	<g>
		<path fill="#BCBEC0" d="M50.3,82.6c-4.9-1.3-9.1-4.4-11.9-8.6l-5.2-8.1c-1.5-2.3-3.5-4.2-5.9-5.6c-5.9-3.4-9.7-9.5-10.2-16.3    l-0.2-2.6c-0.3-4.3-2.2-8.4-5.3-11.4l-5.8-5.6l2.1-2.2l5.8,5.6c3.6,3.5,5.8,8.3,6.2,13.3l0.2,2.6c0.4,5.8,3.6,11,8.7,13.9    c2.8,1.6,5.2,3.9,6.9,6.6l5.2,8.1c2.4,3.6,6,6.3,10.2,7.4l11.5,3.1l-0.8,2.9L50.3,82.6z"/>
		<path fill="#BCBEC0" d="M61.1,84.4l-10.6-2.8c-4.7-1.2-8.7-4.2-11.3-8.2l-5.2-8.1c-1.6-2.4-3.7-4.5-6.2-5.9    c-5.6-3.3-9.2-9.1-9.7-15.5l-0.2-2.6c-0.3-4.6-2.3-8.8-5.6-12l-5.1-4.9l0.7-0.7l5.1,4.9c3.5,3.4,5.6,7.9,5.9,12.7l0.2,2.6    c0.4,6.1,3.8,11.7,9.2,14.7c2.6,1.5,4.9,3.7,6.6,6.2l5.2,8.1c2.5,3.8,6.3,6.6,10.8,7.8l10.6,2.8L61.1,84.4z"/>
	</g>
</g>
<g>
	<path fill="#BCBEC0" d="M42.9,50.3l1.8-4.1c1.6-3.7,1.9-7.9,0.9-11.8c-1-3.6-1-7.4,0-11l0-0.1l3.1-7.4l2.8,1.2l-3,7.2   c-0.8,3-0.8,6.2,0,9.3c1.2,4.6,0.9,9.5-1,13.8l-1.8,4.1L42.9,50.3z"/>
	<path fill="#BCBEC0" d="M45.2,50.2l-0.9-0.4l1.4-3.2c1.7-3.9,2-8.3,0.9-12.5c-0.9-3.4-0.9-7,0-10.5l2.7-6.4l0.9,0.4L47.5,24   c-0.9,3.2-0.9,6.6,0,9.9c1.2,4.3,0.8,9-1,13.1L45.2,50.2z"/>
</g>
<g>
	<path fill="#BCBEC0" d="M59.9,84.2l1-3.6c0.8-2.9,2.5-5.4,4.9-7.2c2.3-1.8,3.7-4.4,4.2-7.2l0.2-1c0.5-3.2,0.1-6.4-1.2-9.4l-2-4.8   l2.8-1.2l2,4.8c1.5,3.5,2,7.3,1.4,11l-0.2,1c-0.5,3.6-2.4,6.8-5.3,9.1c-1.9,1.5-3.2,3.4-3.8,5.7l-1,3.6L59.9,84.2z"/>
	<path fill="#BCBEC0" d="M62.1,83.8l-1-0.3l0.8-2.6c0.8-2.7,2.3-5,4.5-6.7c2.5-2,4.1-4.7,4.5-7.8l0.2-1c0.5-3.4,0.1-6.8-1.3-9.9   l-1.6-3.8l0.9-0.4l1.6,3.8c1.4,3.3,1.9,6.9,1.3,10.5l-0.2,1c-0.5,3.4-2.2,6.4-4.9,8.5c-2,1.6-3.5,3.8-4.2,6.2L62.1,83.8z"/>
</g>
<!-- overlay 1 + change overlay 1 stroke color -->
<path fill="none" stroke="#BCBEC0" stroke-miterlimit="10" d="M77.7,60.9C76,57.1,74,50,76.8,42.1c0.9-2.5,1.2-5.2,0.8-7.9  C76.5,25.5,70.8,8.7,45.1,2c-8.6-2.2-17.7-2.1-26,0.9C13.7,4.8,8.4,8,6.3,13.2c-0.3,0.7-0.6,1.4-1,2c-1.5,2.6-5,9.9-4.1,19.2  c0.2,2.2,0,4.4-0.4,6.6c-1.1,6,0.3,22.1,28.9,54c0,0,9.7,11.5,8.9,26.7c-0.2,3,0.5,6,2,8.5c1.9,3.1,5.3,6.4,11.8,7.8  c1.8,0.4,3.7,0.1,5.2-0.9c2.5-1.5,6.7-4,10.6-6.4c0.4-0.3,0.9-0.5,1.3-0.8c2-1.2,9.3-5.8,11-12.1c0.5-1.9,1.1-3.7,1.9-5.5  c2.7-5.9,7.9-18.8,5.7-26.8c0,0-4.5-16.2-7.9-20.5C79.2,63.7,78.3,62.4,77.7,60.9z"/>
<!-- overlay 2 -->
<g>
	<g>
		<path fill="#000000" d="M47.3,136.5l-0.8-0.7L66,113.2c2.4-3.1,3.7-6.9,3.7-10.9v-1.4c0-4.4-1.6-8.6-4.5-11.8l-4.3-4.8l-7.1-10    c-2.2-3.2-3.4-6.9-3.4-10.7c0-4.3-1.6-8.5-4.5-11.7l-4.2-4.7c-3-3.4-4.7-7.8-4.7-12.4V24.1c0-3.7-1.1-7.3-3.3-10.3l-5-6.9l0.8-0.6    l5,6.9c2.3,3.2,3.5,6.9,3.5,10.8v10.6c0,4.3,1.6,8.5,4.5,11.7l4.2,4.7c3,3.4,4.7,7.8,4.7,12.4c0,3.7,1.1,7.2,3.2,10.2l7,10    l4.3,4.8c3.1,3.4,4.8,7.9,4.8,12.5v1.4c0,4.1-1.4,8.2-4,11.5L47.3,136.5z"/>
	</g>
	<g>
		<path fill="#000000" d="M61.1,84.4l-10.6-2.8c-4.7-1.2-8.7-4.2-11.3-8.2l-5.2-8.1c-1.6-2.4-3.7-4.5-6.2-5.9    c-5.6-3.3-9.2-9.1-9.7-15.5l-0.2-2.6c-0.3-4.6-2.3-8.8-5.6-12l-5.1-4.9l0.7-0.7l5.1,4.9c3.5,3.4,5.6,7.9,5.9,12.7l0.2,2.6    c0.4,6.1,3.8,11.7,9.2,14.7c2.6,1.5,4.9,3.7,6.6,6.2l5.2,8.1c2.5,3.8,6.3,6.6,10.8,7.8l10.6,2.8L61.1,84.4z"/>
	</g>
</g>
<g>
	<path fill="#000000" d="M45.2,50.2l-0.9-0.4l1.4-3.2c1.7-3.9,2-8.3,0.9-12.5c-0.9-3.4-0.9-7,0-10.5l2.7-6.4l0.9,0.4L47.5,24   c-0.9,3.2-0.9,6.6,0,9.9c1.2,4.3,0.8,9-1,13.1L45.2,50.2z"/>
</g>
<g>
	<path fill="#000000" d="M62.1,84.1l-0.9-0.6l0.8-2.6c0.8-2.7,2.3-5,4.5-6.7c2.5-2,4.1-4.7,4.5-7.8l0.2-1c0.5-3.4,0.1-6.8-1.3-9.9   l-1.6-3.8l0.9-0.4l1.6,3.8c1.4,3.3,1.9,6.9,1.3,10.5l-0.2,1c-0.5,3.4-2.2,6.4-4.9,8.5c-2,1.6-3.5,3.8-4.2,6.2L62.1,84.1z"/>
</g>
<!-- overlay 6 -->
<path fill="none" stroke="#000000" stroke-miterlimit="10" d="M4.9,41.2l3.4,4.5c1.2,1.5,2,3.3,2.3,5.2l0,0c0.6,3,2.3,5.7,4.8,7.6  l2.1,1.6c1.6,1.2,3.6,2,5.6,2.3l10.1,1.5"/>
<path fill="none" stroke="#000000" stroke-miterlimit="10" d="M17.4,22.2l0.9,0.7c2,1.7,3.1,4.1,3.1,6.7v0c0,1.1-0.2,2.3-0.7,3.3  l-2.7,6.6"/>
<path fill="none" stroke="#000000" stroke-miterlimit="10" d="M23.9,13.2l2.3,2.6c0.8,0.9,1.2,2.1,1.2,3.3v0c0,1.4,0.6,2.8,1.6,3.7  l3.6,3.3c0.4,0.3,0.8,0.6,1.2,0.8l3.6,1.8"/>
<path fill="none" stroke="#000000" stroke-miterlimit="10" d="M57.8,21l-1.1,0.9c-1.2,1-1.8,2.7-1.5,4.3v0c0.1,0.6,0,1.3-0.5,1.8  L54,28.7c-0.9,1-1.3,2.3-1,3.6v0c0.2,1.4-0.2,2.9-1.3,3.9L47.8,40"/>
<path fill="none" stroke="#000000" stroke-miterlimit="10" d="M28.2,45.2l2.8,2.5c0.7,0.6,0.9,1.7,0.4,2.5h0  c-0.4,0.8-0.3,1.7,0.2,2.3l1.6,1.9c0.6,0.6,0.7,1.6,0.3,2.3l-2.4,4.5"/>
<path fill="none" stroke="#000000" stroke-miterlimit="10" d="M62.6,56.5l-0.6,2c-0.4,1.1,0,2.4,0.9,3.2v0c1,0.9,1.3,2.2,0.8,3.4  L63,66.5c-0.3,0.6-0.3,1.3-0.1,2l2.2,7.7"/>
<path fill="none" stroke="#000000" stroke-miterlimit="10" d="M26,76.7l3.4,0.8c1.7,0.4,3.3,1.4,4.4,2.7h0c1.2,1.5,3,2.5,4.9,2.8  l4.3,0.7c0.3,0.1,0.7,0.1,1,0.2l4.3,1.3c2,0.6,4.2,0.4,6.1-0.7l2.8-1.5"/>
<path fill="none" stroke="#000000" stroke-miterlimit="10" d="M40.8,61.9l1.2,0.3c1.6,0.4,2.8,1.7,3.1,3.3l0,0  c0.2,1.2,1,2.3,2.1,2.9l5.4,3"/>
<path fill="none" stroke="#000000" stroke-miterlimit="10" d="M73.3,82.9l2,1.1c1.7,0.9,2.3,3,1.5,4.8l0,0c-0.7,1.5-0.6,3.1,0.2,4.5  l0,0c0.8,1.4,0.8,3.1,0.1,4.6l-2.1,4.5c-0.4,0.8-1,1.5-1.7,2l-3.8,2.7"/>
<path fill="none" stroke="#000000" stroke-miterlimit="10" d="M59.9,92.9l2.1,1.8c0.8,0.7,1.3,1.7,1.3,2.8v0c0,1.6,1,3,2.5,3.5  l3.9,1.3"/>
<path fill="none" stroke="#000000" stroke-miterlimit="10" d="M48.3,107.8l2.5,1.1c1.1,0.5,1.7,1.6,1.4,2.8l-0.3,1.8  c-0.2,1.1,0.4,2.2,1.4,2.7h0c0.9,0.4,1.4,1.3,1.4,2.3v8.4"/>
</svg>
