<?xml version="1.0" encoding="utf-8"?>
<!-- Generator: Adobe Illustrator 19.2.1, SVG Export Plug-In . SVG Version: 6.00 Build 0)  -->
<!DOCTYPE svg PUBLIC "-//W3C//DTD SVG 1.1//EN" "http://www.w3.org/Graphics/SVG/1.1/DTD/svg11.dtd">
<svg xmlns="http://www.w3.org/2000/svg" xmlns:xlink="http://www.w3.org/1999/xlink" version="1.1" id="Layer_1" x="0px" y="0px" viewBox="0 0 89.2 138.5" enable-background="new 0 0 89.2 138.5" xml:space="preserve">
<!-- overlay 1 + change overlay 1 stroke color -->
<path fill="none" stroke="#BCBEC0" stroke-miterlimit="10" d="M77.7,60.9C76,57.1,74,50,76.8,42.1c0.9-2.5,1.2-5.2,0.8-7.9  C76.5,25.5,70.8,8.7,45.1,2c-8.6-2.2-17.7-2.1-26,0.9C13.7,4.8,8.4,8,6.3,13.2c-0.3,0.7-0.6,1.4-1,2c-1.5,2.6-5,9.9-4.1,19.2  c0.2,2.2,0,4.4-0.4,6.6c-1.1,6,0.3,22.1,28.9,54c0,0,9.7,11.5,8.9,26.7c-0.2,3,0.5,6,2,8.5c1.9,3.1,5.3,6.4,11.8,7.8  c1.8,0.4,3.7,0.1,5.2-0.9c2.5-1.5,6.7-4,10.6-6.4c0.4-0.3,0.9-0.5,1.3-0.8c2-1.2,9.3-5.8,11-12.1c0.5-1.9,1.1-3.7,1.9-5.5  c2.7-5.9,7.9-18.8,5.7-26.8c0,0-4.5-16.2-7.9-20.5C79.2,63.7,78.3,62.4,77.7,60.9z"/>
<!-- overlay 2 -->
<g>
	<g>
		<path fill="#BCBEC0" d="M47.3,136.5l-0.8-0.7L66,113.2c2.4-3.1,3.7-6.9,3.7-10.9v-1.4c0-4.4-1.6-8.6-4.5-11.8l-4.3-4.8l-7.1-10    c-2.2-3.2-3.4-6.9-3.4-10.7c0-4.3-1.6-8.5-4.5-11.7l-4.2-4.7c-3-3.4-4.7-7.8-4.7-12.4V24.1c0-3.7-1.1-7.3-3.3-10.3l-5-6.9l0.8-0.6    l5,6.9c2.3,3.2,3.5,6.9,3.5,10.8v10.6c0,4.3,1.6,8.5,4.5,11.7l4.2,4.7c3,3.4,4.7,7.8,4.7,12.4c0,3.7,1.1,7.2,3.2,10.2l7,10    l4.3,4.8c3.1,3.4,4.8,7.9,4.8,12.5v1.4c0,4.1-1.4,8.2-4,11.5L47.3,136.5z"/>
	</g>
	<g>
		<path fill="#BCBEC0" d="M61.1,84.4l-10.6-2.8c-4.7-1.2-8.7-4.2-11.3-8.2l-5.2-8.1c-1.6-2.4-3.7-4.5-6.2-5.9    c-5.6-3.3-9.2-9.1-9.7-15.5l-0.2-2.6c-0.3-4.6-2.3-8.8-5.6-12l-5.1-4.9l0.7-0.7l5.1,4.9c3.5,3.4,5.6,7.9,5.9,12.7l0.2,2.6    c0.4,6.1,3.8,11.7,9.2,14.7c2.6,1.5,4.9,3.7,6.6,6.2l5.2,8.1c2.5,3.8,6.3,6.6,10.8,7.8l10.6,2.8L61.1,84.4z"/>
	</g>
</g>
<g>
	<path fill="#BCBEC0" d="M45.2,50.2l-0.9-0.4l1.4-3.2c1.7-3.9,2-8.3,0.9-12.5c-0.9-3.4-0.9-7,0-10.5l2.7-6.4l0.9,0.4L47.5,24   c-0.9,3.2-0.9,6.6,0,9.9c1.2,4.3,0.8,9-1,13.1L45.2,50.2z"/>
</g>
<g>
	<path fill="#BCBEC0" d="M62.1,84.1l-0.9-0.6l0.8-2.6c0.8-2.7,2.3-5,4.5-6.7c2.5-2,4.1-4.7,4.5-7.8l0.2-1c0.5-3.4,0.1-6.8-1.3-9.9   l-1.6-3.8l0.9-0.4l1.6,3.8c1.4,3.3,1.9,6.9,1.3,10.5l-0.2,1c-0.5,3.4-2.2,6.4-4.9,8.5c-2,1.6-3.5,3.8-4.2,6.2L62.1,84.1z"/>
</g>
<!-- overlay 10 -->
<path opacity="0.5" fill="#6D6E71" d="M40.9,49.7l4.2,16.1c0.6,2.2,1.5,4.4,2.7,6.4l0,0c1.9,3.2,4.4,5.9,7.5,8l5.3,3.7l1-0.3  l-7-35.7L40.9,49.7z"/>
<line stroke="#C1272D" fill="none" stroke-width="2" x1="44.76786" y1="49.42373" x2="61.26054" y2="84.07022" id="svg_12"/>
<circle stroke="#C1272D" fill="#C1272D" cx="61.1" cy="83.8" r="1.4"/>
</svg>
