<?xml version="1.0" encoding="utf-8"?>
<!-- Generator: Adobe Illustrator 19.2.1, SVG Export Plug-In . SVG Version: 6.00 Build 0)  -->
<!DOCTYPE svg PUBLIC "-//W3C//DTD SVG 1.1//EN" "http://www.w3.org/Graphics/SVG/1.1/DTD/svg11.dtd">
<svg xmlns="http://www.w3.org/2000/svg" xmlns:xlink="http://www.w3.org/1999/xlink" version="1.1" id="Layer_1" x="0px" y="0px" viewBox="0 0 89.2 138.5" enable-background="new 0 0 89.2 138.5" xml:space="preserve">
<g>
	<g>
		<path fill="#BE1E2D" d="M47.3,136.5l-0.8-0.7L66,113.2c2.4-3.1,3.7-6.9,3.7-10.9v-1.4c0-4.4-1.6-8.6-4.5-11.8l-4.3-4.8l-7.1-10    c-2.2-3.2-3.4-6.9-3.4-10.7c0-4.3-1.6-8.5-4.5-11.7l-4.2-4.7c-3-3.4-4.7-7.8-4.7-12.4V24.1c0-3.7-1.1-7.3-3.3-10.3l-5-6.9l0.8-0.6    l5,6.9c2.3,3.2,3.5,6.9,3.5,10.8v10.6c0,4.3,1.6,8.5,4.5,11.7l4.2,4.7c3,3.4,4.7,7.8,4.7,12.4c0,3.7,1.1,7.2,3.2,10.2l7,10    l4.3,4.8c3.1,3.4,4.8,7.9,4.8,12.5v1.4c0,4.1-1.4,8.2-4,11.5L47.3,136.5z"/>
	</g>
	<g>
		<path fill="#BE1E2D" d="M61.1,84.4l-10.6-2.8c-4.7-1.2-8.7-4.2-11.3-8.2l-5.2-8.1c-1.6-2.4-3.7-4.5-6.2-5.9    c-5.6-3.3-9.2-9.1-9.7-15.5l-0.2-2.6c-0.3-4.6-2.3-8.8-5.6-12l-5.1-4.9l0.7-0.7l5.1,4.9c3.5,3.4,5.6,7.9,5.9,12.7l0.2,2.6    c0.4,6.1,3.8,11.7,9.2,14.7c2.6,1.5,4.9,3.7,6.6,6.2l5.2,8.1c2.5,3.8,6.3,6.6,10.8,7.8l10.6,2.8L61.1,84.4z"/>
	</g>
</g>
<g>
	<path fill="#BE1E2D" d="M45.2,50.2l-0.9-0.4l1.4-3.2c1.7-3.9,2-8.3,0.9-12.5c-0.9-3.4-0.9-7,0-10.5l2.7-6.4l0.9,0.4L47.5,24   c-0.9,3.2-0.9,6.6,0,9.9c1.2,4.3,0.8,9-1,13.1L45.2,50.2z"/>
</g>
<g>
	<path fill="#BE1E2D" d="M61.9,84l-0.8-0.4l0.8-2.6c0.8-2.7,2.3-5,4.5-6.7c2.5-2,4.1-4.7,4.5-7.8l0.2-1c0.5-3.4,0.1-6.8-1.3-9.9   l-1.6-3.8l0.9-0.4l1.6,3.8c1.4,3.3,1.9,6.9,1.3,10.5l-0.2,1c-0.5,3.4-2.2,6.4-4.9,8.5c-2,1.6-3.5,3.8-4.2,6.2L61.9,84z"/>
</g>
<polyline fill="none" stroke="#000000" stroke-miterlimit="10" points="29.6,6.3 61.1,83.5 46.9,136.2 "/>
<polyline fill="none" stroke="#000000" stroke-miterlimit="10" points="68.7,51.3 61.1,83.5 7.9,23.6 "/>
<line fill="none" stroke="#000000" stroke-miterlimit="10" x1="49.3" y1="17.3" x2="46.1" y2="46.7"/>
</svg>
