<?xml version="1.0" encoding="utf-8"?>
<!-- Generator: Adobe Illustrator 19.2.1, SVG Export Plug-In . SVG Version: 6.00 Build 0)  -->
<!DOCTYPE svg PUBLIC "-//W3C//DTD SVG 1.1//EN" "http://www.w3.org/Graphics/SVG/1.1/DTD/svg11.dtd">
<svg version="1.1" id="Layer_1" xmlns="http://www.w3.org/2000/svg" xmlns:xlink="http://www.w3.org/1999/xlink" x="0px" y="0px"
	 viewBox="0 0 89.1 138.7" style="enable-background:new 0 0 89.1 138.7;" xml:space="preserve">
<style type="text/css">
	.st0{fill:none;stroke:#000000;stroke-miterlimit:10;}
	.st1{opacity:0.5;fill:#414042;stroke:#000000;stroke-miterlimit:10;enable-background:new    ;}
	.st2{opacity:0.5;fill:#6D6E71;stroke:#000000;stroke-miterlimit:10;enable-background:new    ;}
	.st3{fill:none;stroke:#C1272D;stroke-miterlimit:10;}
</style>
<path class="st0" d="M39.2,1l5.3,48.1l31.2-3.3c0,0,0.5-2.1,1-3.7c0,0,1.6-4.1,0.8-7.9C77.5,34.3,75.4,6.3,39.2,1z"/>
<path class="st0" d="M40.8,49.9l3.7-0.8L39.2,1c-26.5-2.7-33,12.3-33,12.3L32.4,41"/>
<path class="st0" d="M32.4,41L6.2,13.3c0,0-6.1,7.8-5.1,21.2c0,0,0.6,2.6-0.4,6.6c0,0-3.9,19.6,28.1,53.1l31.7-10.1l-5.3-3.7
	c-3-2.1-5.6-4.8-7.5-8l0,0c-1.2-2-2.1-4.2-2.7-6.4l-4.2-16.1"/>
<path class="st0" d="M54.6,48.1l7,35.7l23.9-6.5c0,0-1.3-5.9-5.4-12.2c0,0-5.9-5.9-4.4-19.2L54.6,48.1z"/>
<path class="st0" d="M33.7,101.6c0,0,4.9,5.7,4.7,20.1c0,0-0.9,13.7,13.8,16.3c0,0,2.5,0.8,5.2-0.9c0,0,21.8-10.4,22.9-19.3
	c0,0,0.4-2.2,1.9-5.5c0,0,8.7-17,5.7-26.8l-2.6-8.3l-23.9,6.5L28.7,94.1C28.7,94.1,33.3,99.9,33.7,101.6z"/>
<g>
	<path d="M7.8,66.6l-0.3-0.9l19.6-7l-0.9-12.9L37.9,36l3.6,14.2l-13.7,9.3L7.8,66.6z M27.2,46.1L28,58l12.3-8.4l-3-11.9L27.2,46.1z"
		/>
</g>
</svg>
