<?xml version="1.0" encoding="utf-8"?>
<!-- Generator: Adobe Illustrator 19.2.1, SVG Export Plug-In . SVG Version: 6.00 Build 0)  -->
<!DOCTYPE svg PUBLIC "-//W3C//DTD SVG 1.1//EN" "http://www.w3.org/Graphics/SVG/1.1/DTD/svg11.dtd">
<svg xmlns="http://www.w3.org/2000/svg" xmlns:xlink="http://www.w3.org/1999/xlink" version="1.1" id="Layer_1" x="0px" y="0px" viewBox="0 0 89.2 138.5" enable-background="new 0 0 89.2 138.5" xml:space="preserve">
<path opacity="0.5" fill="#BCBEC0" d="M39.3,0.9L44.6,49l31.2-3.3c0,0,0.5-2.1,1-3.7c0,0,1.6-4.1,0.8-7.9  C77.6,34.2,75.5,6.2,39.3,0.9z"/>
<path opacity="0.5" fill="#BCBEC0" d="M44.6,49L39.3,0.9c-26.5-2.7-33,12.3-33,12.3l34.6,36.6L44.6,49z"/>
<path opacity="0.5" fill="#BCBEC0" d="M33.8,101.5c0,0,4.9,5.7,4.7,20.1c0,0-0.9,13.7,13.8,16.3c0,0,2.5,0.8,5.2-0.9  c0,0,21.8-10.4,22.9-19.3c0,0,0.4-2.2,1.9-5.5c0,0,8.7-17,5.7-26.8l-2.6-8.3l-23.9,6.5L28.8,94C28.8,94,33.4,99.8,33.8,101.5z"/>
<path opacity="0.5" fill="#BCBEC0" d="M54.7,48l7,35.7l23.9-6.5c0,0-1.3-5.9-5.4-12.2c0,0-5.9-5.9-4.4-19.2L54.7,48z"/>
<polygon opacity="0.5" fill="#BCBEC0" points="40.9,49.7 46,69.3 50.7,77.1 60.6,84 61.6,83.7 54.7,48 "/>
<path opacity="0.5" fill="#BCBEC0" d="M6.3,13.2c0,0-6.1,7.8-5.1,21.2c0,0,0.6,2.6-0.4,6.6c0,0-3.9,19.6,28.1,53.1L60.6,84l-10-6.8  L46,69.3l-5.1-19.5L6.3,13.2z"/>
<path fill="none" stroke="#000000" stroke-miterlimit="10" d="M39.3,0.9L44.6,49l31.2-3.3c0,0,0.5-2.1,1-3.7c0,0,1.6-4.1,0.8-7.9  C77.6,34.2,75.5,6.2,39.3,0.9z"/>
<path fill="none" stroke="#000000" stroke-miterlimit="10" d="M44.6,49L39.3,0.9c-26.5-2.7-33,12.3-33,12.3l34.6,36.6L44.6,49z"/>
<path fill="none" stroke="#000000" stroke-miterlimit="10" d="M6.3,13.2c0,0-6.1,7.8-5.1,21.2c0,0,0.6,2.6-0.4,6.6  c0,0-3.9,19.6,28.1,53.1L60.6,84l-5.3-3.7c-3-2.1-5.6-4.8-7.5-8l0,0c-1.2-2-2.1-4.2-2.7-6.4l-4.2-16.1L6.3,13.2z"/>
<path fill="none" stroke="#000000" stroke-miterlimit="10" d="M54.7,48l7,35.7l23.9-6.5c0,0-1.3-5.9-5.4-12.2c0,0-5.9-5.9-4.4-19.2  L54.7,48z"/>
<path fill="none" stroke="#000000" stroke-miterlimit="10" d="M33.8,101.5c0,0,4.9,5.7,4.7,20.1c0,0-0.9,13.7,13.8,16.3  c0,0,2.5,0.8,5.2-0.9c0,0,21.8-10.4,22.9-19.3c0,0,0.4-2.2,1.9-5.5c0,0,8.7-17,5.7-26.8l-2.6-8.3l-23.9,6.5L28.8,94  C28.8,94,33.4,99.8,33.8,101.5z"/>
</svg>
