<?xml version="1.0" encoding="utf-8"?>
<!-- Generator: Adobe Illustrator 19.2.1, SVG Export Plug-In . SVG Version: 6.00 Build 0)  -->
<!DOCTYPE svg PUBLIC "-//W3C//DTD SVG 1.1//EN" "http://www.w3.org/Graphics/SVG/1.1/DTD/svg11.dtd">
<svg xmlns="http://www.w3.org/2000/svg" xmlns:xlink="http://www.w3.org/1999/xlink" version="1.1" id="Layer_1" x="0px" y="0px" viewBox="0 0 88.2 137.5" enable-background="new 0 0 88.2 137.5" xml:space="preserve">
<path opacity="0.5" fill="#BCBEC0" d="M77.2,60.4c-1.7-3.9-3.7-11-0.9-18.9c0.9-2.5,1.2-5.2,0.8-7.9C76,25,70.3,8.2,44.6,1.5  c-8.6-2.2-17.7-2.1-26,0.9C13.2,4.3,7.9,7.5,5.8,12.7c-0.3,0.7-0.6,1.4-1,2c-1.5,2.6-5,9.9-4.1,19.2c0.2,2.2,0,4.4-0.4,6.6  c-1.1,6,0.3,22.1,28.9,54c0,0,9.7,11.5,8.9,26.7c-0.2,3,0.5,6,2,8.5c1.9,3.1,5.3,6.4,11.8,7.8c1.8,0.4,3.7,0.1,5.2-0.9  c2.5-1.5,6.7-4,10.6-6.4c0.4-0.3,0.9-0.5,1.3-0.8c2-1.2,9.3-5.8,11-12.1c0.5-1.9,1.1-3.7,1.9-5.5c2.7-5.9,7.9-18.8,5.7-26.8  c0,0-4.5-16.2-7.9-20.5C78.7,63.2,77.8,61.9,77.2,60.4z"/>
</svg>
