<?xml version="1.0" encoding="utf-8"?>
<!-- Generator: Adobe Illustrator 19.2.1, SVG Export Plug-In . SVG Version: 6.00 Build 0)  -->
<!DOCTYPE svg PUBLIC "-//W3C//DTD SVG 1.1//EN" "http://www.w3.org/Graphics/SVG/1.1/DTD/svg11.dtd">
<svg xmlns="http://www.w3.org/2000/svg" xmlns:xlink="http://www.w3.org/1999/xlink" version="1.1" id="Layer_1" x="0px" y="0px" viewBox="0 0 89.2 138.5" enable-background="new 0 0 89.2 138.5" xml:space="preserve">
<path fill="none" stroke="#000000" stroke-miterlimit="10" d="M4.9,41.2l3.4,4.5c1.2,1.5,2,3.3,2.3,5.2l0,0c0.6,3,2.3,5.7,4.8,7.6  l2.1,1.6c1.6,1.2,3.6,2,5.6,2.3l10.1,1.5"/>
<path fill="none" stroke="#000000" stroke-miterlimit="10" d="M17.4,22.2l0.9,0.7c2,1.7,3.1,4.1,3.1,6.7v0c0,1.1-0.2,2.3-0.7,3.3  l-2.7,6.6"/>
<path fill="none" stroke="#000000" stroke-miterlimit="10" d="M23.9,13.2l2.3,2.6c0.8,0.9,1.2,2.1,1.2,3.3v0c0,1.4,0.6,2.8,1.6,3.7  l3.6,3.3c0.4,0.3,0.8,0.6,1.2,0.8l3.6,1.8"/>
<path fill="none" stroke="#000000" stroke-miterlimit="10" d="M57.8,21l-1.1,0.9c-1.2,1-1.8,2.7-1.5,4.3v0c0.1,0.6,0,1.3-0.5,1.8  L54,28.7c-0.9,1-1.3,2.3-1,3.6v0c0.2,1.4-0.2,2.9-1.3,3.9L47.8,40"/>
<path fill="none" stroke="#000000" stroke-miterlimit="10" d="M28.2,45.2l2.8,2.5c0.7,0.6,0.9,1.7,0.4,2.5h0  c-0.4,0.8-0.3,1.7,0.2,2.3l1.6,1.9c0.6,0.6,0.7,1.6,0.3,2.3l-2.4,4.5"/>
<path fill="none" stroke="#000000" stroke-miterlimit="10" d="M62.6,56.5l-0.6,2c-0.4,1.1,0,2.4,0.9,3.2v0c1,0.9,1.3,2.2,0.8,3.4  L63,66.5c-0.3,0.6-0.3,1.3-0.1,2l2.2,7.7"/>
<path fill="none" stroke="#000000" stroke-miterlimit="10" d="M26,76.7l3.4,0.8c1.7,0.4,3.3,1.4,4.4,2.7h0c1.2,1.5,3,2.5,4.9,2.8  l4.3,0.7c0.3,0.1,0.7,0.1,1,0.2l4.3,1.3c2,0.6,4.2,0.4,6.1-0.7l2.8-1.5"/>
<path fill="none" stroke="#000000" stroke-miterlimit="10" d="M40.8,61.9l1.2,0.3c1.6,0.4,2.8,1.7,3.1,3.3l0,0  c0.2,1.2,1,2.3,2.1,2.9l5.4,3"/>
<path fill="none" stroke="#000000" stroke-miterlimit="10" d="M73.3,82.9l2,1.1c1.7,0.9,2.3,3,1.5,4.8l0,0c-0.7,1.5-0.6,3.1,0.2,4.5  l0,0c0.8,1.4,0.8,3.1,0.1,4.6l-2.1,4.5c-0.4,0.8-1,1.5-1.7,2l-3.8,2.7"/>
<path fill="none" stroke="#000000" stroke-miterlimit="10" d="M59.9,92.9l2.1,1.8c0.8,0.7,1.3,1.7,1.3,2.8v0c0,1.6,1,3,2.5,3.5  l3.9,1.3"/>
<path fill="none" stroke="#000000" stroke-miterlimit="10" d="M48.3,107.8l2.5,1.1c1.1,0.5,1.7,1.6,1.4,2.8l-0.3,1.8  c-0.2,1.1,0.4,2.2,1.4,2.7h0c0.9,0.4,1.4,1.3,1.4,2.3v8.4"/>
</svg>
