<?xml version="1.0" encoding="utf-8"?>
<!-- Generator: Adobe Illustrator 19.2.1, SVG Export Plug-In . SVG Version: 6.00 Build 0)  -->
<!DOCTYPE svg PUBLIC "-//W3C//DTD SVG 1.1//EN" "http://www.w3.org/Graphics/SVG/1.1/DTD/svg11.dtd">
<svg xmlns="http://www.w3.org/2000/svg" xmlns:xlink="http://www.w3.org/1999/xlink" version="1.1" id="Layer_1" x="0px" y="0px" viewBox="0 0 89.2 138.5" enable-background="new 0 0 89.2 138.5" xml:space="preserve">
<path opacity="0.5" fill="#414042" stroke="#000000" stroke-miterlimit="10" d="M38.4,117c0,0,0.7-9.6-9.6-22.9l32.8-10.4l23.9-6.5  c0,0,2.3,7.2,2.6,8.3c0,0,3.1,8.6-5.7,26.8l-1.7,4.8H38.4z"/>
<path opacity="0.5" fill="#6D6E71" stroke="#000000" stroke-miterlimit="10" d="M38.4,117c0,0,0.2,3.8,0.1,4.6c0,0-0.3,5.6,2,8.5  c0,0,2.8,6,11.8,7.8c0,0,2.5,0.8,5.2-0.9c0,0,10.1-6,11.9-7.2c0,0,9.8-5.5,11.2-12.9H38.4z"/>
<g>
	<rect x="38.4" y="116.5" width="42.1" height="1"/>
</g>
<circle cx="63.4" cy="117" r="2.1"/>
<path fill="none" stroke="#000000" stroke-miterlimit="10" d="M38.4,117c0,0,0.7-9.6-9.6-22.9l32.8-10.4l23.9-6.5  c0,0,2.3,7.2,2.6,8.3c0,0,3.1,8.6-5.7,26.8l-1.7,4.8H38.4z"/>
<path fill="none" stroke="#000000" stroke-miterlimit="10" d="M38.4,117c0,0,0.2,3.8,0.1,4.6c0,0-0.3,5.6,2,8.5c0,0,2.8,6,11.8,7.8  c0,0,2.5,0.8,5.2-0.9c0,0,10.1-6,11.9-7.2c0,0,9.8-5.5,11.2-12.9H38.4z"/>
</svg>
